<svg width="120" height="120" viewBox="0 0 120 120" fill="none" xmlns="http://www.w3.org/2000/svg">
  <!-- Mask base shape -->
  <path d="M60 15C35 15 20 40 20 60C20 90 40 105 60 105C80 105 100 90 100 60C100 40 85 15 60 15Z" fill="#FFF5F5" stroke="#C53030" stroke-width="2.5"/>
  
  <!-- Face decoration lines -->
  <path d="M40 40C45 35 55 35 60 40C65 35 75 35 80 40" stroke="#C53030" stroke-width="2" stroke-linecap="round"/>
  <path d="M40 45C50 40 70 40 80 45" stroke="#C53030" stroke-width="1.5" stroke-linecap="round"/>
  
  <!-- Eyes -->
  <path d="M45 55C45 52 48 50 50 50C52 50 55 52 55 55C55 58 52 60 50 60C48 60 45 58 45 55Z" fill="#C53030"/>
  <path d="M65 55C65 52 68 50 70 50C72 50 75 52 75 55C75 58 72 60 70 60C68 60 65 58 65 55Z" fill="#C53030"/>
  
  <!-- Eyebrows -->
  <path d="M40 45C43 40 47 38 53 40" stroke="#9B2C2C" stroke-width="2" stroke-linecap="round"/>
  <path d="M80 45C77 40 73 38 67 40" stroke="#9B2C2C" stroke-width="2" stroke-linecap="round"/>
  
  <!-- Nose -->
  <path d="M60 55L55 65H65L60 55Z" fill="#9B2C2C"/>
  
  <!-- Mouth -->
  <path d="M50 75C55 80 65 80 70 75" stroke="#9B2C2C" stroke-width="2" stroke-linecap="round"/>
  
  <!-- Cheek accents -->
  <path d="M35 65C40 70 45 70 45 65" stroke="#C53030" stroke-width="1.5" stroke-linecap="round"/>
  <path d="M85 65C80 70 75 70 75 65" stroke="#C53030" stroke-width="1.5" stroke-linecap="round"/>
  
  <!-- Forehead marks -->
  <circle cx="60" cy="30" r="3" fill="#C53030"/>
  <path d="M50 32L70 32" stroke="#9B2C2C" stroke-width="1.5" stroke-linecap="round"/>
  
  <!-- Decorative patterns -->
  <path d="M30 70C25 75 25 85 30 90" stroke="#C53030" stroke-width="1.5" stroke-linecap="round"/>
  <path d="M90 70C95 75 95 85 90 90" stroke="#C53030" stroke-width="1.5" stroke-linecap="round"/>
</svg> 